<svg width="151" height="55" viewBox="0 0 151 55" fill="none" xmlns="http://www.w3.org/2000/svg">
<g clip-path="url(#clip0_800_35)">
<path d="M77.3904 24.6396H62.0549C56.3334 24.6396 54.3409 29.2644 47.1007 38.65C41.2165 46.277 36.346 52.8535 34.7695 55.0005H41.6869C43.9641 52.2131 47.8984 47.197 51.1399 42.6394C57.574 33.5929 59.3887 30.7122 62.5847 30.7122H71.2562V55.0005H77.3904V24.6401V24.6396ZM80.4575 54.9999H101.927C108.061 54.9999 111.128 51.9639 111.128 45.8918V33.7477C111.128 27.6756 108.061 24.6396 101.927 24.6396H80.4575V30.7117H101.927C103.972 30.7117 104.994 31.7233 104.994 33.7477V36.7837H92.7258V42.8558H104.994V45.8918C104.994 47.9162 103.972 48.9279 101.927 48.9279H80.4575V54.9999ZM151.001 54.9999H144.866V35.9741L132.597 54.9999L120.329 35.9741V54.9999H114.195V24.6396H120.329L132.597 43.6654L144.866 24.6396H151.001V54.9999Z" fill="#003169"/>
<path fill-rule="evenodd" clip-rule="evenodd" d="M32.5562 6.78516L24.6517 7.82455L23.6016 0L32.5562 6.78516ZM32.1134 11.2135L27.0152 17.8067L26.0089 17.9387L25.228 12.1192L32.1139 11.2135H32.1134ZM21.6625 18.5103L20.6551 18.6424L13.995 13.5953L20.8816 12.6896L21.6625 18.5098V18.5103ZM19.2558 0.57158L20.3058 8.39613L12.4012 9.43552L19.2558 0.57158ZM17.9883 22.0919L18.1217 23.088L12.242 23.861L11.3271 17.0447L17.9877 22.0913L17.9883 22.0919ZM7.90458 24.4315L0 25.4708L6.85456 16.6069L7.90458 24.4315ZM18.6997 27.3904L18.8331 28.3876L13.7344 34.9802L12.8194 28.1634L18.6991 27.3904H18.6997ZM0.577427 29.7727L8.48201 28.7333L9.53203 36.5578L0.577427 29.7727ZM48.7561 19.0608L40.8516 20.1002L39.8015 12.2757L48.7561 19.0608ZM36.5136 20.6701L30.6339 21.4431L30.5005 20.4459L35.5992 13.8533L36.5141 20.6701H36.5136ZM42.479 32.2266L41.429 24.402L49.3336 23.3627L42.479 32.2266ZM38.0054 31.7888L31.3448 26.7416L31.2113 25.7455L37.0904 24.9725L38.0054 31.7888ZM30.0772 48.2625L29.0272 40.4379L36.9318 39.3985L30.0772 48.2625ZM28.4515 36.1439L27.6705 30.3237L28.6779 30.1917L35.338 35.2388L28.4515 36.1444V36.1439ZM16.7768 42.0483L24.6814 41.009L25.7314 48.8335L16.7768 42.0483ZM17.2191 37.6205L22.3173 31.0274L23.3241 30.8953L24.1051 36.7154L17.2191 37.6211V37.6205ZM26.8504 21.5924L27.5197 26.5785L22.4821 27.2411L21.8133 22.2545L26.8504 21.5924Z" fill="#003169"/>
</g>
<defs>
<clipPath id="clip0_800_35">
<rect width="151" height="55" fill="white"/>
</clipPath>
</defs>
</svg>
