<svg width="166" height="24" viewBox="0 0 166 24" fill="none" xmlns="http://www.w3.org/2000/svg">
<path d="M164 10.5C164.828 10.5 165.5 11.1716 165.5 12C165.5 12.8284 164.828 13.5 164 13.5L164 10.5ZM0.939346 13.0607C0.353546 12.4749 0.353546 11.5251 0.939346 10.9394L10.4853 1.39341C11.0711 0.807625 12.0208 0.807625 12.6066 1.39341C13.1924 1.9792 13.1924 2.92895 12.6066 3.51473L4.12132 12L12.6066 20.4853C13.1924 21.0711 13.1924 22.0208 12.6066 22.6066C12.0208 23.1924 11.0711 23.1924 10.4853 22.6066L0.939346 13.0607ZM164 13.5L2 13.5L2 10.5L164 10.5L164 13.5Z" fill="white"/>
</svg>
