<svg width="34" height="34" viewBox="0 0 34 34" fill="none" xmlns="http://www.w3.org/2000/svg">
<path fill-rule="evenodd" clip-rule="evenodd" d="M0 16.6428C0 7.45124 7.46204 0 16.6667 0C25.8713 0 33.3333 7.45124 33.3333 16.6428C33.3333 25.8344 25.8713 33.2856 16.6667 33.2856C7.46204 33.2856 0 25.8344 0 16.6428ZM14.0938 22.7259L22.4271 17.525C22.7315 17.3346 22.9167 17.0014 22.9167 16.6428C22.9167 16.2843 22.7315 15.9511 22.4271 15.7606L14.0938 10.5598C13.7726 10.3591 13.3677 10.3479 13.0366 10.5323C12.7055 10.7157 12.5 11.0636 12.5 11.442V21.8437C12.5 22.2221 12.7055 22.57 13.0366 22.7534C13.194 22.8407 13.368 22.8839 13.5417 22.8839C13.7334 22.8839 13.9251 22.831 14.0938 22.7259Z" fill="white"/>
</svg>
