<svg width="235" height="199" viewBox="0 0 235 199" fill="none" xmlns="http://www.w3.org/2000/svg">
<path fill-rule="evenodd" clip-rule="evenodd" d="M17.1508 199H57.5162L59.4427 184.559L0 176.695L17.1508 199ZM90.7162 199H135.708L136.282 194.715L92.0679 188.871L90.7162 198.999V199ZM164.31 199H202.856L206.954 168.319L169.067 163.306L164.31 199ZM235 174.656V172.473L234.712 174.618L235 174.656ZM235 126.255V98.7546L213.965 95.9732L208.088 139.992L215.662 140.995L235 126.255ZM235 65.7068V15.7817L226.185 4.3195L218.291 63.4988L235 65.7068H235ZM140.624 162.176L141.63 154.636L103.282 104.775L96.4055 156.326L140.624 162.176ZM4.3392 144.161L63.7846 152.02L71.6771 92.8394L4.3392 144.161ZM126.165 51.318L185.605 59.1771L193.504 0.00012207L126.165 51.318ZM129.492 84.8044L167.836 134.665L175.404 135.672L181.274 91.6558L129.493 84.8044H129.492Z" fill="#193967"/>
</svg>
