<svg width="233" height="224" viewBox="0 0 233 224" fill="none" xmlns="http://www.w3.org/2000/svg">
<path d="M27.2992 222.302C46.5406 222.302 46.5406 191.971 65.782 191.971C85.0234 191.971 85.0404 222.302 104.282 222.302C123.523 222.302 123.523 191.971 142.782 191.971C162.04 191.971 162.023 222.302 181.264 222.302C200.506 222.302 200.523 191.971 219.764 191.971" stroke="white" stroke-width="2" stroke-linecap="round" stroke-linejoin="round"/>
<path d="M194.784 102.522L231.976 56.4482" stroke="white" stroke-width="2" stroke-linecap="round" stroke-linejoin="round"/>
<path d="M96.5348 72.4984H119.563V111.915" stroke="white" stroke-width="2" stroke-linecap="round" stroke-linejoin="round"/>
<path d="M129.26 111.914L154.802 1H176.998L194.762 108.416" stroke="white" stroke-width="2" stroke-linecap="round" stroke-linejoin="round"/>
<path d="M1 33.0827V111.916" stroke="white" stroke-width="2" stroke-linecap="round" stroke-linejoin="round"/>
<path d="M1 33.0801L94.303 108.415V73.0913L9.20265 20.8695L1 33.0801Z" stroke="white" stroke-width="2" stroke-linecap="round" stroke-linejoin="round"/>
<path d="M170.622 218.668V166.531H201.157V206.169" stroke="white" stroke-width="2" stroke-linecap="round" stroke-linejoin="round"/>
<path d="M89.044 213.115V166.531H119.562V213.098" stroke="white" stroke-width="2" stroke-linecap="round" stroke-linejoin="round"/>
<path d="M211.421 111.913H71.5519V164.882H211.421V111.913Z" stroke="white" stroke-width="2" stroke-linecap="round" stroke-linejoin="round"/>
</svg>
