<svg width="110" height="105" viewBox="0 0 110 105" fill="none" xmlns="http://www.w3.org/2000/svg">
<path d="M13.1859 103.542C22.1016 103.542 22.1016 89.4878 31.0172 89.4878C39.9328 89.4878 39.9407 103.542 48.8564 103.542C57.772 103.542 57.772 89.4878 66.6955 89.4878C75.619 89.4878 75.6111 103.542 84.5268 103.542C93.4424 103.542 93.4503 89.4878 102.366 89.4878" stroke="white" stroke-width="2" stroke-linecap="round" stroke-linejoin="round"/>
<path d="M90.791 48.0411L108.024 26.6924" stroke="white" stroke-width="2" stroke-linecap="round" stroke-linejoin="round"/>
<path d="M45.2667 34.1294H55.9371V52.3935" stroke="white" stroke-width="2" stroke-linecap="round" stroke-linejoin="round"/>
<path d="M60.4299 52.3928L72.265 1H82.5499L90.7809 50.7718" stroke="white" stroke-width="2" stroke-linecap="round" stroke-linejoin="round"/>
<path d="M1 15.8657V52.3939" stroke="white" stroke-width="2" stroke-linecap="round" stroke-linejoin="round"/>
<path d="M1 15.8644L44.2326 50.7715V34.4039L4.80075 10.2065L1 15.8644Z" stroke="white" stroke-width="2" stroke-linecap="round" stroke-linejoin="round"/>
<path d="M79.5954 101.858V77.7H93.744V96.0663" stroke="white" stroke-width="2" stroke-linecap="round" stroke-linejoin="round"/>
<path d="M41.7958 99.2848V77.7H55.9365V99.2769" stroke="white" stroke-width="2" stroke-linecap="round" stroke-linejoin="round"/>
<path d="M98.5003 52.3923H33.6907V76.9359H98.5003V52.3923Z" stroke="white" stroke-width="2" stroke-linecap="round" stroke-linejoin="round"/>
</svg>
