<svg width="62" height="56" viewBox="0 0 62 56" fill="none" xmlns="http://www.w3.org/2000/svg">
<path d="M55.5193 1L41.3305 16.75M55.5193 1C55.8958 5.3687 56.3671 10.8385 56.8615 16.5768M55.5193 1H41.3516M49.2961 42.25L60 53C60 53 59.24 44.1795 58.295 33.2124M49.2961 42.25L39.588 52L40.5063 33.4223M49.2961 42.25L58.295 33.2124M49.2961 42.25L40.5063 33.4223M41.3305 16.75L40.5063 33.4223M41.3305 16.75L49.2961 24.1748M41.3305 16.75H30.6266M41.3305 16.75L30.1927 1M19.9227 16.75L21.1262 33.7914M19.9227 16.75L12.7039 24.1748M19.9227 16.75L4.47785 1.23853M19.9227 16.75H30.6266M19.9227 16.75L30.1927 1M12.7039 42.25L22.412 52L21.1262 33.7914M12.7039 42.25L2 53L2.98201 32.4862M12.7039 42.25L21.1262 33.7914M12.7039 42.25L2.98201 32.4862M21.1262 33.7914L12.7039 24.1748M2.98201 32.4862L12.7039 24.1748M2.98201 32.4862L3.75469 16.345M12.7039 24.1748L3.75469 16.345M3.75469 16.345L4.47785 1.23853M3.75469 16.345L19.0339 1M4.47785 1.23853L4.48927 1H19.0339M19.0339 1L30.6266 16.75M19.0339 1H30.1927M58.295 33.2124L49.2961 24.1748M58.295 33.2124C57.8387 27.9172 57.3393 22.1216 56.8615 16.5768M40.5063 33.4223L49.2961 24.1748M49.2961 24.1748L56.8615 16.5768M56.8615 16.5768L41.3516 1M41.3516 1L30.6266 16.75M41.3516 1H30.1927" stroke="white" stroke-width="2"/>
</svg>
