<svg width="91" height="91" viewBox="0 0 91 91" fill="none" xmlns="http://www.w3.org/2000/svg">
<path fill-rule="evenodd" clip-rule="evenodd" d="M0 45.2685C0 20.2674 20.2968 0 45.3333 0C70.3699 0 90.6667 20.2674 90.6667 45.2685C90.6667 70.2696 70.3699 90.537 45.3333 90.537C20.2968 90.537 0 70.2696 0 45.2685ZM38.335 61.8147L61.0017 47.6683C61.8297 47.1503 62.3333 46.2439 62.3333 45.2687C62.3333 44.2935 61.8297 43.3872 61.0017 42.8691L38.335 28.7227C37.4614 28.177 36.3602 28.1466 35.4595 28.6481C34.5589 29.1468 34 30.0931 34 31.1223V59.4151C34 60.4442 34.5589 61.3906 35.4595 61.8893C35.8877 62.127 36.3609 62.2444 36.8333 62.2444C37.3548 62.2444 37.8764 62.1006 38.335 61.8147Z" fill="white"/>
</svg>
