<svg width="25" height="24" viewBox="0 0 25 24" fill="none" xmlns="http://www.w3.org/2000/svg">
<path d="M12.5 2C6.98 2 2.5 6.48 2.5 12C2.5 17.52 6.98 22 12.5 22H17.5V20H12.5C8.16 20 4.5 16.34 4.5 12C4.5 7.66 8.16 4 12.5 4C16.84 4 20.5 7.66 20.5 12V13.43C20.5 14.22 19.79 15 19 15C18.21 15 17.5 14.22 17.5 13.43V12C17.5 9.24 15.26 7 12.5 7C9.74 7 7.5 9.24 7.5 12C7.5 14.76 9.74 17 12.5 17C13.88 17 15.14 16.44 16.04 15.53C16.69 16.42 17.81 17 19 17C20.97 17 22.5 15.4 22.5 13.43V12C22.5 6.48 18.02 2 12.5 2ZM12.5 15C10.84 15 9.5 13.66 9.5 12C9.5 10.34 10.84 9 12.5 9C14.16 9 15.5 10.34 15.5 12C15.5 13.66 14.16 15 12.5 15Z" fill="white"/>
</svg>
