<svg width="21" height="20" viewBox="0 0 21 20" fill="none" xmlns="http://www.w3.org/2000/svg">
<path d="M10.5 0C9.18677 0 7.88641 0.258658 6.67315 0.761205C5.4599 1.26375 4.35751 2.00035 3.42892 2.92893C1.55356 4.8043 0.499988 7.34784 0.499988 10C0.491246 12.3091 1.29078 14.5485 2.75999 16.33L0.759988 18.33C0.62123 18.4706 0.527234 18.6492 0.48986 18.8432C0.452486 19.0372 0.473409 19.2379 0.549988 19.42C0.633046 19.5999 0.767692 19.7511 0.936835 19.8544C1.10598 19.9577 1.30199 20.0083 1.49999 20H10.5C13.1522 20 15.6957 18.9464 17.5711 17.0711C19.4464 15.1957 20.5 12.6522 20.5 10C20.5 7.34784 19.4464 4.8043 17.5711 2.92893C15.6957 1.05357 13.1522 0 10.5 0ZM10.5 18H3.90999L4.83999 17.07C5.02624 16.8826 5.13078 16.6292 5.13078 16.365C5.13078 16.1008 5.02624 15.8474 4.83999 15.66C3.53057 14.352 2.71516 12.6305 2.53268 10.7888C2.3502 8.94705 2.81193 7.09901 3.83922 5.55952C4.8665 4.02004 6.39578 2.88436 8.1665 2.34597C9.93723 1.80759 11.8398 1.8998 13.5502 2.60691C15.2606 3.31402 16.6728 4.59227 17.5464 6.22389C18.42 7.85551 18.7009 9.73954 18.3411 11.555C17.9814 13.3705 17.0033 15.005 15.5735 16.1802C14.1438 17.3554 12.3508 17.9985 10.5 18Z" fill="white"/>
</svg>
