<svg width="25" height="24" viewBox="0 0 25 24" fill="none" xmlns="http://www.w3.org/2000/svg">
<path d="M18.5 16.08C17.74 16.08 17.06 16.38 16.54 16.85L9.41 12.7C9.46 12.47 9.5 12.24 9.5 12C9.5 11.76 9.46 11.53 9.41 11.3L16.46 7.19C17 7.69 17.71 8 18.5 8C20.16 8 21.5 6.66 21.5 5C21.5 3.34 20.16 2 18.5 2C16.84 2 15.5 3.34 15.5 5C15.5 5.24 15.54 5.47 15.59 5.7L8.54 9.81C8 9.31 7.29 9 6.5 9C4.84 9 3.5 10.34 3.5 12C3.5 13.66 4.84 15 6.5 15C7.29 15 8 14.69 8.54 14.19L15.66 18.35C15.61 18.56 15.58 18.78 15.58 19C15.58 20.61 16.89 21.92 18.5 21.92C20.11 21.92 21.42 20.61 21.42 19C21.42 17.39 20.11 16.08 18.5 16.08Z" fill="white"/>
</svg>
