<svg width="25" height="24" viewBox="0 0 25 24" fill="none" xmlns="http://www.w3.org/2000/svg">
<path d="M22.7647 2.42772C22.48 2.19085 22.1364 2.03561 21.7704 1.97852C21.4045 1.92143 21.0299 1.96463 20.6866 2.10351L2.76566 9.33886C2.38241 9.49654 2.05618 9.76705 1.83026 10.1145C1.60434 10.4619 1.48943 10.8698 1.50076 11.2841C1.5121 11.6984 1.64916 12.0994 1.89374 12.4339C2.13832 12.7685 2.47886 13.0207 2.87016 13.1572L6.49516 14.418L8.51566 21.0996C8.54312 21.1889 8.58297 21.2738 8.63404 21.352C8.64179 21.364 8.65272 21.3729 8.66096 21.3846C8.71996 21.4669 8.79127 21.5397 8.87239 21.6003C8.89546 21.6179 8.91755 21.6344 8.94221 21.65C9.03714 21.713 9.14228 21.7591 9.25294 21.7861L9.26478 21.7871L9.27149 21.79C9.33802 21.8035 9.40574 21.8104 9.47364 21.8105C9.48017 21.8105 9.48597 21.8074 9.49244 21.8073C9.5949 21.8055 9.69647 21.7878 9.79353 21.755C9.81611 21.7473 9.83546 21.7344 9.85737 21.7251C9.92975 21.6951 9.99832 21.6567 10.0617 21.6106C10.1124 21.5678 10.1631 21.5251 10.2139 21.4824L12.916 18.499L16.9463 21.6211C17.3011 21.8973 17.7379 22.0474 18.1875 22.0478C18.6587 22.0472 19.1154 21.8846 19.4809 21.5874C19.8465 21.2901 20.0987 20.8762 20.1954 20.415L23.458 4.39843C23.532 4.03795 23.5065 3.66415 23.3844 3.31702C23.2623 2.96989 23.0481 2.66249 22.7647 2.42772ZM9.87016 14.7363C9.7315 14.8744 9.63672 15.0504 9.5977 15.2422L9.28819 16.7462L8.50413 14.1531L12.5694 12.0362L9.87016 14.7363ZM18.1719 20.04L13.4092 16.3505C13.21 16.1966 12.96 16.1233 12.7092 16.1454C12.4583 16.1675 12.225 16.2833 12.0557 16.4697L11.1903 17.4249L11.4961 15.9384L18.5791 8.85543C18.7482 8.68659 18.8512 8.46278 18.8695 8.22455C18.8878 7.98632 18.8201 7.74941 18.6788 7.55675C18.5375 7.36408 18.3319 7.22839 18.0992 7.17426C17.8664 7.12014 17.622 7.15115 17.4102 7.26168L7.24491 12.5543L3.52055 11.1914L21.499 3.99899L18.1719 20.04Z" fill="white"/>
</svg>
