<svg width="25" height="24" viewBox="0 0 25 24" fill="none" xmlns="http://www.w3.org/2000/svg">
<path d="M23.4912 3.95021C23.4913 3.77357 23.4446 3.60007 23.3558 3.44735C23.2671 3.29464 23.1394 3.16817 22.9859 3.08084C22.8324 2.9935 22.6584 2.94842 22.4818 2.95017C22.3052 2.95193 22.1322 3.00046 21.9804 3.09083C21.3951 3.43921 20.765 3.70601 20.1074 3.88383C19.1684 3.07806 17.9708 2.63713 16.7334 2.64164C15.376 2.6432 14.0723 3.17223 13.0976 4.11702C12.123 5.06181 11.5536 6.3484 11.5098 7.70512C8.83378 7.27838 6.40843 5.88164 4.69625 3.78126C4.59308 3.65609 4.46133 3.55757 4.31211 3.494C4.16288 3.43043 4.00056 3.40368 3.83883 3.41601C3.67719 3.42932 3.52122 3.4818 3.38442 3.56892C3.24762 3.65603 3.13409 3.77516 3.05367 3.91601C2.6412 4.63582 2.4043 5.44276 2.36222 6.27131C2.32014 7.09986 2.47406 7.92666 2.81148 8.68456L2.80953 8.68651C2.65788 8.77991 2.53272 8.91066 2.44603 9.06625C2.35935 9.22185 2.31403 9.39708 2.31441 9.57519C2.31257 9.72211 2.32139 9.86898 2.34078 10.0146C2.44292 11.2729 3.00056 12.4507 3.90914 13.3271C3.8475 13.4446 3.80988 13.5731 3.79848 13.7052C3.78708 13.8373 3.80212 13.9704 3.84273 14.0967C4.23884 15.3308 5.08123 16.3727 6.20504 17.0185C5.06328 17.46 3.83046 17.614 2.61519 17.4668C2.39026 17.4386 2.16242 17.4876 1.96904 17.6059C1.77566 17.7242 1.62822 17.9047 1.5509 18.1178C1.47359 18.3309 1.471 18.5639 1.54355 18.7787C1.6161 18.9935 1.75949 19.1772 1.95019 19.2998C4.04028 20.646 6.47387 21.3617 8.95996 21.3613C11.7792 21.393 14.5299 20.4921 16.7842 18.7988C19.0385 17.1054 20.6699 14.7145 21.4248 11.998C21.7778 10.8146 21.9581 9.58648 21.96 8.35157C21.96 8.28614 21.96 8.21876 21.959 8.15138C22.4811 7.58831 22.8855 6.92668 23.1486 6.20527C23.4117 5.48387 23.5282 4.7172 23.4912 3.95021ZM20.1845 7.16212C20.0194 7.35746 19.9358 7.60891 19.9511 7.86427C19.9609 8.02927 19.9599 8.19527 19.9599 8.35157C19.9579 9.39511 19.8049 10.4329 19.5058 11.4326C18.8893 13.744 17.515 15.7817 15.6029 17.2192C13.6908 18.6568 11.3516 19.4111 8.95996 19.3613C8.10084 19.3616 7.24468 19.2606 6.40918 19.0606C7.47459 18.7172 8.47077 18.1879 9.35156 17.4971C9.51378 17.3693 9.63251 17.1945 9.69145 16.9967C9.75038 16.7988 9.74664 16.5875 9.68073 16.3918C9.61483 16.1961 9.48999 16.0257 9.32334 15.9038C9.15669 15.7819 8.9564 15.7145 8.74996 15.7109C7.91879 15.698 7.12509 15.363 6.53609 14.7764C6.68551 14.7481 6.83395 14.7129 6.98141 14.6709C7.19742 14.6094 7.38645 14.477 7.51807 14.295C7.64969 14.1131 7.71623 13.8921 7.70698 13.6677C7.69773 13.4433 7.61324 13.2285 7.46709 13.058C7.32095 12.8874 7.12167 12.7711 6.90133 12.7275C6.41887 12.6323 5.96487 12.427 5.57464 12.1277C5.18441 11.8284 4.86845 11.4432 4.65133 11.002C4.83206 11.0266 5.01394 11.0419 5.19625 11.0479C5.41283 11.0511 5.62484 10.9854 5.80162 10.8603C5.97841 10.7351 6.1108 10.5569 6.17965 10.3516C6.24563 10.1443 6.24223 9.92123 6.16998 9.7161C6.09772 9.51096 5.96055 9.33499 5.77926 9.21485C5.33941 8.92182 4.9791 8.52427 4.73061 8.0578C4.48213 7.59134 4.35322 7.07052 4.35543 6.54201C4.35543 6.47561 4.35738 6.4092 4.36129 6.34377C6.60255 8.43402 9.50961 9.66621 12.5703 9.82326C12.7248 9.82934 12.8786 9.80024 13.0202 9.73816C13.1618 9.67607 13.2875 9.58262 13.3877 9.46486C13.4869 9.34596 13.5571 9.20566 13.5928 9.05501C13.6286 8.90437 13.6289 8.74748 13.5937 8.5967C13.5365 8.35806 13.5073 8.11357 13.5068 7.86818C13.5077 7.01271 13.8479 6.19254 14.4528 5.58764C15.0577 4.98274 15.8779 4.64251 16.7334 4.64161C17.1735 4.64043 17.6091 4.7305 18.0127 4.90615C18.4162 5.0818 18.779 5.3392 19.0781 5.66212C19.1934 5.7862 19.3386 5.87871 19.4998 5.93085C19.661 5.98299 19.8328 5.99303 19.999 5.96001C20.4097 5.88006 20.8146 5.7724 21.2109 5.63775C20.9406 6.19072 20.5952 6.70369 20.1845 7.16212Z" fill="white"/>
</svg>
