<svg width="25" height="24" viewBox="0 0 25 24" fill="none" xmlns="http://www.w3.org/2000/svg">
<path d="M17.1 14C16.9 13.9 15.6 13.3 15.4 13.2C15.2 13.1 15 13.1 14.8 13.3C14.6 13.5 14.2 14.1 14 14.3C13.9 14.5 13.7 14.5 13.5 14.4C12.8 14.1 12.1 13.7 11.5 13.2C11 12.7 10.5 12.1 10.1 11.5C10 11.3 10.1 11.1 10.2 11C10.3 10.9 10.4 10.7 10.6 10.6C10.7 10.5 10.8 10.3 10.8 10.2C10.9 10.1 10.9 9.89998 10.8 9.79998C10.7 9.69998 10.2 8.49998 10 7.99998C9.9 7.29998 9.7 7.29998 9.5 7.29998C9.4 7.29998 9.2 7.29998 9 7.29998C8.8 7.29998 8.5 7.49998 8.4 7.59998C7.8 8.19998 7.5 8.89998 7.5 9.69998C7.6 10.6 7.9 11.5 8.5 12.3C9.6 13.9 11 15.2 12.7 16C13.2 16.2 13.6 16.4 14.1 16.5C14.6 16.7 15.1 16.7 15.7 16.6C16.4 16.5 17 16 17.4 15.4C17.6 15 17.6 14.6 17.5 14.2C17.5 14.2 17.3 14.1 17.1 14ZM19.6 4.89998C15.7 0.999976 9.4 0.999976 5.5 4.89998C2.3 8.09998 1.7 13 3.9 16.9L2.5 22L7.8 20.6C9.3 21.4 10.9 21.8 12.5 21.8C18 21.8 22.4 17.4 22.4 11.9C22.5 9.29997 21.4 6.79998 19.6 4.89998ZM16.9 18.9C15.6 19.7 14.1 20.2 12.5 20.2C11 20.2 9.6 19.8 8.3 19.1L8 18.9L4.9 19.7L5.7 16.7L5.5 16.4C3.1 12.4 4.3 7.39998 8.2 4.89998C12.1 2.39998 17.1 3.69998 19.5 7.49998C21.9 11.4 20.8 16.5 16.9 18.9Z" fill="white"/>
</svg>
